<svg xmlns="http://www.w3.org/2000/svg" viewBox="0 0 48 64"><g data-name="Layer 2"><g data-name="Layer 1"><path d="M48 41.22C48 53.8 37.25 64 24 64S0 53.8 0 41.22C0 27.79 15.78 7.54 21.75.37a1 1 0 011.81.63c-.51 6-.16 18.84 10.58 25.24a1 1 0 001.37-.24 13.14 13.14 0 002.25-6.69 1 1 0 011.89-.4C44.22 26.43 48 34.64 48 41.22z" fill="#ff7f00"/><path d="M9 49.76C9 57.63 15.72 64 24 64s15-6.37 15-14.24-8.69-19.51-12.84-24.61a1 1 0 00-1.82.63c.15 4-.55 10.77-6.35 14.45a1 1 0 01-1.41-.32 8.06 8.06 0 01-1-2.8 1 1 0 00-1.9-.32C11.05 41.22 9 45.93 9 49.76z" fill="#ffda00"/><path d="M32.25 56.17A8 8 0 0124 64a8 8 0 01-8.25-7.83c0-3.87 3.8-9.37 6.25-12.51a1 1 0 011.82.53 8.34 8.34 0 003 6.38 1 1 0 001.59-.41 1 1 0 011.84-.16 14.07 14.07 0 012 6.17z" fill="#fff"/></g></g></svg>